<mxfile host="app.diagrams.net" agent="Mozilla/5.0 (Windows NT 10.0; Win64; x64) AppleWebKit/537.36 (KHTML, like Gecko) Chrome/130.0.0.0 Safari/537.36 Edg/130.0.0.0" version="24.8.3">
  <diagram name="Page-1" id="LsFm-aEKYKMSSwsNSjdR">
    <mxGraphModel dx="2084" dy="1098" grid="1" gridSize="10" guides="1" tooltips="1" connect="1" arrows="1" fold="1" page="1" pageScale="1" pageWidth="827" pageHeight="1169" math="0" shadow="0">
      <root>
        <mxCell id="0" />
        <mxCell id="1" parent="0" />
        <mxCell id="2" value="Input Image CT Scan" style="whiteSpace=wrap;strokeWidth=2;" parent="1" vertex="1">
          <mxGeometry x="70" y="710" width="95" height="48" as="geometry" />
        </mxCell>
        <mxCell id="qaJpPBlVWicHgy9tfjpO-8" style="edgeStyle=orthogonalEdgeStyle;rounded=0;orthogonalLoop=1;jettySize=auto;html=1;entryX=0;entryY=0.5;entryDx=0;entryDy=0;" edge="1" parent="1" source="3" target="qaJpPBlVWicHgy9tfjpO-4">
          <mxGeometry relative="1" as="geometry" />
        </mxCell>
        <mxCell id="3" value="ModelÂ " style="whiteSpace=wrap;strokeWidth=2;" parent="1" vertex="1">
          <mxGeometry x="170" y="810" width="92" height="48" as="geometry" />
        </mxCell>
        <mxCell id="4" value="" style="curved=1;startArrow=none;endArrow=block;exitX=0.5;exitY=1.01;entryX=0.49;entryY=0.01;" parent="1" source="2" target="3" edge="1">
          <mxGeometry relative="1" as="geometry">
            <Array as="points" />
          </mxGeometry>
        </mxCell>
        <mxCell id="qaJpPBlVWicHgy9tfjpO-9" style="edgeStyle=orthogonalEdgeStyle;rounded=0;orthogonalLoop=1;jettySize=auto;html=1;entryX=0;entryY=0.5;entryDx=0;entryDy=0;" edge="1" parent="1" source="qaJpPBlVWicHgy9tfjpO-4" target="qaJpPBlVWicHgy9tfjpO-6">
          <mxGeometry relative="1" as="geometry" />
        </mxCell>
        <mxCell id="qaJpPBlVWicHgy9tfjpO-10" style="edgeStyle=orthogonalEdgeStyle;rounded=0;orthogonalLoop=1;jettySize=auto;html=1;entryX=0;entryY=0.5;entryDx=0;entryDy=0;" edge="1" parent="1" source="qaJpPBlVWicHgy9tfjpO-4" target="qaJpPBlVWicHgy9tfjpO-7">
          <mxGeometry relative="1" as="geometry" />
        </mxCell>
        <mxCell id="qaJpPBlVWicHgy9tfjpO-4" value="Optimization" style="rounded=0;whiteSpace=wrap;html=1;" vertex="1" parent="1">
          <mxGeometry x="320" y="680" width="120" height="60" as="geometry" />
        </mxCell>
        <mxCell id="qaJpPBlVWicHgy9tfjpO-15" style="edgeStyle=orthogonalEdgeStyle;rounded=0;orthogonalLoop=1;jettySize=auto;html=1;entryX=1;entryY=0.5;entryDx=0;entryDy=0;" edge="1" parent="1" source="qaJpPBlVWicHgy9tfjpO-5" target="qaJpPBlVWicHgy9tfjpO-14">
          <mxGeometry relative="1" as="geometry">
            <Array as="points">
              <mxPoint x="720" y="920" />
            </Array>
          </mxGeometry>
        </mxCell>
        <mxCell id="qaJpPBlVWicHgy9tfjpO-5" value="Feedback" style="rounded=0;whiteSpace=wrap;html=1;" vertex="1" parent="1">
          <mxGeometry x="660" y="810" width="120" height="60" as="geometry" />
        </mxCell>
        <mxCell id="qaJpPBlVWicHgy9tfjpO-11" style="edgeStyle=orthogonalEdgeStyle;rounded=0;orthogonalLoop=1;jettySize=auto;html=1;entryX=0;entryY=0.5;entryDx=0;entryDy=0;" edge="1" parent="1" source="qaJpPBlVWicHgy9tfjpO-6" target="qaJpPBlVWicHgy9tfjpO-5">
          <mxGeometry relative="1" as="geometry" />
        </mxCell>
        <mxCell id="qaJpPBlVWicHgy9tfjpO-6" value="Denoised Image CT Scan" style="rounded=0;whiteSpace=wrap;html=1;" vertex="1" parent="1">
          <mxGeometry x="470" y="790" width="120" height="60" as="geometry" />
        </mxCell>
        <mxCell id="qaJpPBlVWicHgy9tfjpO-7" value="Detailed Error Report" style="rounded=0;whiteSpace=wrap;html=1;" vertex="1" parent="1">
          <mxGeometry x="530" y="704" width="120" height="60" as="geometry" />
        </mxCell>
        <mxCell id="qaJpPBlVWicHgy9tfjpO-12" style="edgeStyle=orthogonalEdgeStyle;rounded=0;orthogonalLoop=1;jettySize=auto;html=1;entryX=0.637;entryY=0.051;entryDx=0;entryDy=0;entryPerimeter=0;" edge="1" parent="1" source="qaJpPBlVWicHgy9tfjpO-7" target="qaJpPBlVWicHgy9tfjpO-5">
          <mxGeometry relative="1" as="geometry" />
        </mxCell>
        <mxCell id="qaJpPBlVWicHgy9tfjpO-14" value="Reinforcement Learning (RL) with external feedback" style="rounded=0;whiteSpace=wrap;html=1;" vertex="1" parent="1">
          <mxGeometry x="410" y="890" width="120" height="60" as="geometry" />
        </mxCell>
        <mxCell id="qaJpPBlVWicHgy9tfjpO-16" style="edgeStyle=orthogonalEdgeStyle;rounded=0;orthogonalLoop=1;jettySize=auto;html=1;entryX=0.422;entryY=0.971;entryDx=0;entryDy=0;entryPerimeter=0;" edge="1" parent="1" source="qaJpPBlVWicHgy9tfjpO-14" target="3">
          <mxGeometry relative="1" as="geometry" />
        </mxCell>
        <mxCell id="qaJpPBlVWicHgy9tfjpO-17" value="Text" style="text;html=1;align=center;verticalAlign=middle;whiteSpace=wrap;rounded=0;" vertex="1" parent="1">
          <mxGeometry x="210" y="720" width="60" height="30" as="geometry" />
        </mxCell>
        <mxCell id="qaJpPBlVWicHgy9tfjpO-18" value="&lt;h1 style=&quot;margin-top: 0px;&quot;&gt;Model DataFlow&lt;/h1&gt;" style="text;html=1;whiteSpace=wrap;overflow=hidden;rounded=0;" vertex="1" parent="1">
          <mxGeometry x="340" y="620" width="210" height="40" as="geometry" />
        </mxCell>
      </root>
    </mxGraphModel>
  </diagram>
</mxfile>
